<?xml version="1.0" standalone="no"?>
<!DOCTYPE svg PUBLIC "-//W3C//DTD SVG 20010904//EN"
 "http://www.w3.org/TR/2001/REC-SVG-20010904/DTD/svg10.dtd">
<svg version="1.0" xmlns="http://www.w3.org/2000/svg"
 width="512.000000pt" height="512.000000pt" viewBox="0 0 512.000000 512.000000"
 preserveAspectRatio="xMidYMid meet">
<metadata>
Created by potrace 1.11, written by Peter Selinger 2001-2013
</metadata>
<g transform="translate(0.000000,512.000000) scale(0.100000,-0.100000)"
fill="#000000" stroke="none">
<path d="M2350 5094 c-299 -35 -530 -114 -795 -272 -33 -20 -64 -40 -70 -44
-5 -4 -50 -39 -100 -77 -231 -176 -422 -412 -551 -678 -30 -61 -54 -118 -54
-125 0 -8 -4 -18 -9 -23 -17 -19 -81 -242 -96 -335 -3 -19 -8 -46 -10 -60 -14
-69 -18 -130 -19 -289 -3 -243 26 -417 109 -647 33 -93 129 -296 177 -374 73
-120 199 -302 260 -375 9 -11 44 -54 78 -95 131 -159 405 -443 611 -635 74
-69 255 -235 332 -306 34 -30 40 -43 44 -85 5 -52 -10 -87 -169 -384 -77 -144
-85 -219 -29 -257 24 -16 63 -18 530 -19 550 0 548 -1 580 57 22 40 6 79 -115
284 -121 206 -151 262 -154 290 -7 60 0 72 71 131 39 33 77 64 83 70 6 5 49
43 96 83 174 149 227 198 330 301 274 274 517 588 695 897 142 247 229 482
274 743 36 207 35 464 -4 675 -84 453 -349 882 -720 1166 -390 299 -894 439
-1375 383z m225 -668 c11 -2 42 -8 70 -12 71 -10 105 -46 100 -105 -6 -52 -31
-80 -76 -85 -97 -10 -138 -15 -155 -19 -302 -61 -560 -231 -722 -475 -71 -105
-148 -266 -140 -290 1 -3 -4 -15 -10 -27 -21 -39 -42 -174 -48 -303 -6 -138
-17 -171 -70 -202 -62 -36 -122 -28 -161 22 -18 22 -42 103 -58 195 -14 80
-14 318 -1 380 73 328 230 568 489 743 122 83 335 164 470 178 34 3 64 8 65 9
5 5 222 -4 247 -9z"/>
</g>
</svg>
